<svg width="32" height="28" fill="none" xmlns="http://www.w3.org/2000/svg"><path d="M29.768 6.437c.202-.684 0-1.187-.972-1.187h-3.217c-.82 0-1.196.432-1.399.913 0 0-1.638 3.998-3.954 6.59-.748.75-1.092.99-1.502.99-.202 0-.514-.24-.514-.924V6.437c0-.82-.229-1.187-.906-1.187h-5.058c-.514 0-.82.383-.82.738 0 .777 1.158.957 1.279 3.145v4.747c0 1.039-.186 1.23-.596 1.23-1.092 0-3.747-4.014-5.32-8.608-.317-.891-.628-1.252-1.453-1.252H2.12c-.918 0-1.103.432-1.103.913 0 .853 1.092 5.092 5.085 10.692 2.66 3.822 6.407 5.895 9.815 5.895 2.049 0 2.3-.46 2.3-1.252 0-3.654-.186-3.998.841-3.998.475 0 1.295.24 3.206 2.084 2.185 2.187 2.546 3.166 3.77 3.166h3.216c.918 0 1.382-.46 1.115-1.367-.612-1.909-4.747-5.835-4.933-6.098-.475-.612-.338-.886 0-1.433.006-.005 3.933-5.54 4.337-7.415z" fill="#fff"/></svg>