<svg version="1.0" xmlns="http://www.w3.org/2000/svg" width="682.667" height="682.667" viewBox="0 0 512 512"><path d="M233.1 1.1C192 4.8 149.5 19.7 114.9 42.6l-10.4 6.9 75.7.3c41.7.1 109.9.1 151.5 0l75.8-.3-10.4-6.9C349.3 10.9 290.5-4 233.1 1.1zM59.5 72.9c-5.1 2.3-10.1 8-11.5 13-.7 2.7-.9 45.2-.8 134.8l.3 130.8 2.4 4.2c1.4 2.4 4.3 5.5 6.5 7l4.1 2.8h391l4.1-2.8c2.2-1.5 5.1-4.6 6.5-7l2.4-4.2.3-130.8c.1-89.6-.1-132.1-.8-134.8-1.4-5-6.4-10.7-11.5-13-3.8-1.8-12.4-1.9-196.5-1.9s-192.7.1-196.5 1.9zm220.9 13.2c1.4 1.1 2.6 2.8 2.6 3.8 0 2-41.6 87.8-43.6 90-1.7 1.9-7.1 1.8-9.1-.1-.8-.9-1.5-2.7-1.5-4 0-2.9 41.7-88.9 43.9-90.6 2.4-1.7 4.7-1.5 7.7.9zm-60.6 33.5c2.2 2.5 2.7 4.9 1.6 7.7-.3.9-5.5 4.8-11.5 8.8l-11 7.2 9.3 6c11.4 7.2 13.8 9.4 13.8 12.3 0 3.2-4.7 8.4-7.5 8.4-2.3 0-29.4-16.9-34.2-21.3-2.3-2-2.9-5.9-1.7-9.2.6-1.6 6.8-5.9 26.3-18.2 9.2-5.8 10.9-6 14.9-1.7zm95.5 7.4c24.5 16 24.5 16.7.2 32.4-9 5.8-17.2 10.6-18.3 10.6-4.5 0-9.1-6.6-7.5-10.8.3-.7 5.5-4.7 11.6-8.7l11-7.4-10.6-6.8c-11.5-7.4-13.2-9.5-11.6-14.3 1-2.8 4.8-5.9 7.4-6 .6 0 8.5 4.9 17.8 11zm-144.2 68.8c5.5 6.1 3 15-4.9 17.2-5 1.3-77.4 1.3-82.4 0-5-1.4-7.8-5.2-7.8-10.4.1-4.7 1.4-6.9 5.6-9.1 2.5-1.3 8.7-1.5 44.7-1.3l41.9.3 2.9 3.3zm-2.8 82.3c7.3 3.7 7.7 14.1.7 18.2-2.5 1.5-7.4 1.7-44 1.7-28.3 0-41.8-.3-43.3-1.1-7.6-3.9-7.7-14.6-.2-18.7 2.8-1.6 83.8-1.6 86.8-.1zm263.6.5c1.3.9 3 3.2 3.8 5.1 1.8 4.5.3 9.4-3.7 12.3-2.8 2-4.1 2-105.4 2H224l-3.2-2.9c-2.8-2.5-3.3-3.6-3.3-7.6 0-4 .5-5.1 3.3-7.6l3.2-2.9h102.8c93.4 0 103 .1 105.1 1.6zm-2.1 41.5c5.3 1.8 8 8.1 5.8 13.4-3 7 5.1 6.5-108.7 6.5H224.2l-3-2.5c-3.8-3.2-4.8-7.2-2.8-11.9 2.9-6.9-2.8-6.5 108.2-6.6 68.9 0 101.1.3 103.2 1.1zM22.7 150.7C5.7 188.6-2.1 232 .8 272.2c1.4 19.5 3.9 34.8 8.7 52.2 3.3 12 11.8 35 15 40.6 1.2 2.2 1.4-11.5 1.5-108.8 0-61.1-.2-111.2-.4-111.2s-1.5 2.6-2.9 5.7zM486.1 256c0 97.4.2 111.2 1.4 109 3.2-5.6 11.7-28.6 15-40.6 12.4-45.2 12.4-91.6 0-136.8-3.3-12-11.8-35-15-40.6-1.2-2.2-1.4 11.6-1.4 109zM63 423.9c0 1.7 28.8 28.8 38 35.7 12.4 9.3 34.8 23.4 37.2 23.4.3 0 .8-2.1 1.2-4.6 1.3-10 7.3-18.6 16-23.2 4.5-2.3 6.6-2.7 17.6-3.2l12.5-.5v-28l-61.2-.3c-34.6-.1-61.3.2-61.3.7zm263.4.4c-.2.7-.3 7.1-.2 14.3l.3 12.9 12.5.5c11 .5 13.1.9 17.6 3.2 8.7 4.6 14.7 13.2 16 23.2.4 2.5.9 4.6 1.2 4.6 2.4 0 24.8-14.1 37.2-23.4 9.2-6.9 38-34 38-35.7 0-.5-27.2-.9-61-.9-49.3 0-61.2.3-61.6 1.3z"/></svg>