<?xml version="1.0" standalone="no"?>
<!DOCTYPE svg PUBLIC "-//W3C//DTD SVG 20010904//EN"
 "http://www.w3.org/TR/2001/REC-SVG-20010904/DTD/svg10.dtd">
<svg version="1.0" xmlns="http://www.w3.org/2000/svg"
 width="512.000000pt" height="512.000000pt" viewBox="0 0 512.000000 512.000000"
 preserveAspectRatio="xMidYMid meet">
<metadata>
Created by potrace 1.14, written by Peter Selinger 2001-2017
</metadata>
<g transform="translate(0.000000,512.000000) scale(0.100000,-0.100000)"
fill="#000000" stroke="none">
<path d="M2331 5109 c-411 -37 -836 -186 -1182 -415 l-104 -69 757 -3 c417 -1
1099 -1 1515 0 l758 3 -104 69 c-478 317 -1066 466 -1640 415z"/>
<path d="M595 4391 c-51 -23 -101 -80 -115 -130 -7 -27 -9 -452 -8 -1348 l3
-1308 24 -42 c14 -24 43 -55 65 -70 l41 -28 1955 0 1955 0 41 28 c22 15 51 46
65 70 l24 42 3 1308 c1 896 -1 1321 -8 1348 -14 50 -64 107 -115 130 -38 18
-124 19 -1965 19 -1841 0 -1927 -1 -1965 -19z m2209 -132 c14 -11 26 -28 26
-38 0 -20 -416 -878 -436 -900 -17 -19 -71 -18 -91 1 -8 9 -15 27 -15 40 0 29
417 889 439 906 24 17 47 15 77 -9z m-606 -335 c22 -25 27 -49 16 -77 -3 -9
-55 -48 -115 -88 l-110 -72 93 -60 c114 -72 138 -94 138 -123 0 -32 -47 -84
-75 -84 -23 0 -294 169 -342 213 -23 20 -29 59 -17 92 6 16 68 59 263 182 92
58 109 60 149 17z m955 -74 c245 -160 245 -167 2 -324 -90 -58 -172 -106 -183
-106 -45 0 -91 66 -75 108 3 7 55 47 116 87 l110 74 -106 68 c-115 74 -132 95
-116 143 10 28 48 59 74 60 6 0 85 -49 178 -110z m-1442 -688 c55 -61 30 -150
-49 -172 -50 -13 -774 -13 -824 0 -50 14 -78 52 -78 104 1 47 14 69 56 91 25
13 87 15 447 13 l419 -3 29 -33z m-28 -823 c73 -37 77 -141 7 -182 -25 -15
-74 -17 -440 -17 -283 0 -418 3 -433 11 -76 39 -77 146 -2 187 28 16 838 16
868 1z m2636 -5 c13 -9 30 -32 38 -51 18 -45 3 -94 -37 -123 -28 -20 -41 -20
-1054 -20 l-1026 0 -32 29 c-28 25 -33 36 -33 76 0 40 5 51 33 76 l32 29 1028
0 c934 0 1030 -1 1051 -16z m-21 -415 c53 -18 80 -81 58 -134 -30 -70 51 -65
-1087 -65 l-1027 0 -30 25 c-38 32 -48 72 -28 119 29 69 -28 65 1082 66 689 0
1011 -3 1032 -11z"/>
<path d="M227 3613 c-170 -379 -248 -813 -219 -1215 14 -195 39 -348 87 -522
33 -120 118 -350 150 -406 12 -22 14 115 15 1088 0 611 -2 1112 -4 1112 -2 0
-15 -26 -29 -57z"/>
<path d="M4861 2560 c0 -974 2 -1112 14 -1090 32 56 117 286 150 406 124 452
124 916 0 1368 -33 120 -118 350 -150 406 -12 22 -14 -116 -14 -1090z"/>
<path d="M630 881 c0 -17 288 -288 380 -357 124 -93 348 -234 372 -234 3 0 8
21 12 46 13 100 73 186 160 232 45 23 66 27 176 32 l125 5 0 140 0 140 -612 3
c-346 1 -613 -2 -613 -7z"/>
<path d="M3264 877 c-2 -7 -3 -71 -2 -143 l3 -129 125 -5 c110 -5 131 -9 176
-32 87 -46 147 -132 160 -232 4 -25 9 -46 12 -46 24 0 248 141 372 234 92 69
380 340 380 357 0 5 -272 9 -610 9 -493 0 -612 -3 -616 -13z"/>
</g>
</svg>
